<svg width="20" height="16" viewBox="0 0 20 16" fill="none" xmlns="http://www.w3.org/2000/svg">
<path d="M7.81057 14.6526C7.27287 14.7796 6.66202 14.8569 6.00039 14.8569C3.71069 14.8569 2.00056 13.9517 2.00056 13.1425V11.5512C2.9281 12.1822 4.35007 12.5714 6.00039 12.5714C6.50122 12.5714 6.97752 12.5317 7.42894 12.464V11.3027C6.9889 11.3816 6.51039 11.4284 6.00039 11.4284C3.71069 11.4284 2.00056 10.5232 2.00056 9.71405V8.1227C2.9281 8.75366 4.35007 9.14268 6.00039 9.14268C6.53171 9.14268 7.03573 9.09843 7.51083 9.0227C7.61406 8.55177 7.81974 8.11272 8.11908 7.71471C7.51261 7.88989 6.79257 7.9999 6.00039 7.9999C3.71069 7.9999 2.00056 7.09471 2.00056 6.28554V4.69419C2.9281 5.32515 4.35007 5.71418 6.00039 5.71418C7.65057 5.71418 9.07274 5.32495 10.0002 4.69419V6.2481C10.3526 6.07989 10.7342 5.9352 11.143 5.81602V2.85709C11.143 1.22824 8.93218 0 6.00019 0C3.0682 0 0.857422 1.22824 0.857422 2.85709V13.1426C0.857422 14.7715 3.0682 15.9997 6.00019 15.9997C6.94686 15.9997 7.81638 15.8704 8.56254 15.642C8.24905 15.3417 7.99832 15.0096 7.81062 14.6525L7.81057 14.6526ZM6.00039 1.14316C8.2901 1.14316 10.0002 2.04835 10.0002 2.85752C10.0002 3.66669 8.2899 4.57188 6.00039 4.57188C3.71069 4.57188 2.00056 3.66669 2.00056 2.85752C2.00037 2.0482 3.71074 1.14316 6.00039 1.14316ZM14.0003 6.85735C11.0682 6.85735 8.85749 8.0856 8.85749 9.71444V13.1429C8.85749 14.7718 11.0683 16 14.0003 16C16.9322 16 19.143 14.7718 19.143 13.1429V9.71444C19.143 8.0856 16.9322 6.85735 14.0003 6.85735ZM14.0003 8.00009C16.29 8.00009 18.0001 8.90528 18.0001 9.71444C18.0001 10.5236 16.2898 11.4288 14.0003 11.4288C11.7106 11.4288 10.0004 10.5236 10.0004 9.71444C10.0004 8.90533 11.7108 8.00009 14.0003 8.00009ZM14.0003 14.8571C11.7106 14.8571 10.0004 13.9519 10.0004 13.1428V11.5514C10.9282 12.1824 12.3501 12.5716 14.0003 12.5716C15.6504 12.5716 17.0726 12.1824 18.0001 11.5516L18.0003 13.143C18.0003 13.9521 16.29 14.8571 14.0003 14.8571Z" fill="#363534"/>
</svg>
