<svg viewBox="0 0 24 24" xmlns="http://www.w3.org/2000/svg">
    <path fill="#ff6d6d" clip-rule="evenodd"
          d="m5 19h5.5c.2761 0 .5.2239.5.5v1c0 .2761-.2239.5-.5.5h-5.5c-1.10457 0-2-.8954-2-2v-14c0-1.10457.89543-2 2-2h5.5c.2761 0 .5.22386.5.5v1c0 .27614-.2239.5-.5.5h-5.5zm10.64-12.85 5.14 5.13c.1389.1417.2177.3316.22.53v.38c-.0002.1988-.0793.3895-.22.53l-5.14 5.13c-.0939.0947-.2217.1479-.355.1479s-.2611-.0532-.355-.1479l-.71-.7c-.0947-.0939-.1479-.2217-.1479-.355s.0532-.2611.1479-.355l3.45-3.44h-10.17c-.27614 0-.5-.2239-.5-.5v-1c0-.2761.22386-.5.5-.5h10.17l-3.45-3.44c-.0941-.09216-.1471-.21831-.1471-.35s.053-.25784.1471-.35l.71-.71c.0939-.09466.2217-.1479.355-.1479s.2611.05324.355.1479z"
          fill-rule="evenodd"/>
</svg>
