<svg width="32" height="32" viewBox="0 0 32 32" fill="none" xmlns="http://www.w3.org/2000/svg">
<path d="M24.7798 4.44732C24.0868 4.44732 23.3934 4.5559 22.758 4.71859C21.8337 1.95256 19.1188 0 15.9422 0C12.7652 0 10.0504 1.95256 9.12651 4.71859C8.49111 4.5559 7.79809 4.44732 7.10464 4.44732C3.17702 4.44732 0 7.43049 0 11.1185C0 14.5897 2.8881 17.5183 6.52722 17.7896L6.52682 29.0168C6.52682 31.7829 13.7471 32 15.9998 32C18.2525 32 25.4728 31.7832 25.4728 29.0168V17.7896C29.1119 17.5183 32 14.5897 32 11.1185C31.9424 7.43011 28.7079 4.44732 24.7798 4.44732ZM15.9422 30.373C11.148 30.373 8.3755 29.5051 8.20222 29.017V26.7932C8.66437 27.01 9.18412 27.173 9.81956 27.2812C11.4369 27.6611 13.632 27.8238 15.9422 27.8238C17.4439 27.8238 21.372 27.7152 23.6823 26.7391V28.9629C23.509 29.5055 20.7365 30.373 15.9422 30.373ZM24.7798 16.1627H24.6642H24.5486C24.3177 16.1627 24.0864 16.2168 23.9132 16.3795C23.7399 16.5421 23.6243 16.7593 23.6243 16.9761V24.8405C23.451 25.3285 20.6785 26.1964 15.8842 26.1964C11.09 26.1964 8.37507 25.3285 8.14423 24.8405V16.9761C8.14423 16.7593 8.02859 16.5421 7.85533 16.3795C7.68208 16.2168 7.45081 16.1627 7.27755 16.1627H7.21993H7.1043H7.04668C4.04295 16.1627 1.67501 13.8847 1.67501 11.1188C1.67501 8.35273 4.10102 6.07484 7.04668 6.07484C7.85533 6.07484 8.60636 6.23752 9.35696 6.56289C9.58783 6.67147 9.87672 6.67147 10.108 6.56289C10.3389 6.45431 10.5125 6.23752 10.5701 5.96626C10.9747 3.47113 13.2274 1.68167 15.8842 1.68167C18.5415 1.68167 20.7942 3.47151 21.1984 5.96626C21.256 6.23752 21.4292 6.45431 21.6605 6.56289C21.8914 6.67147 22.1803 6.67147 22.4115 6.56289C23.1626 6.23752 23.9132 6.07484 24.7218 6.07484C27.7255 6.07484 30.0935 8.35283 30.0935 11.1188C30.0939 13.8848 27.7836 16.1627 24.7798 16.1627Z" fill="#A0B492"/>
</svg>
