<svg width="17" height="17" viewBox="0 0 17 17" fill="none" xmlns="http://www.w3.org/2000/svg">
<path d="M13.2473 2.36264C12.9008 2.36264 12.5541 2.42032 12.2364 2.50675C11.7743 1.0373 10.4168 0 8.82854 0C7.24003 0 5.88262 1.0373 5.42068 2.50675C5.10298 2.42032 4.75647 2.36264 4.40974 2.36264C2.44593 2.36264 0.857422 3.94745 0.857422 5.90669C0.857422 7.75077 2.30147 9.30661 4.12103 9.45073L4.12083 15.4152C4.12083 16.8846 7.73096 17 8.85732 17C9.98368 17 13.5938 16.8848 13.5938 15.4152V9.45073C15.4134 9.30662 16.8574 7.75077 16.8574 5.90669C16.8286 3.94724 15.2113 2.36243 13.2473 2.36243L13.2473 2.36264ZM8.82854 16.1356C6.43141 16.1356 5.04517 15.6746 4.95853 15.4153V14.2339C5.1896 14.349 5.44948 14.4357 5.7672 14.4932C6.57587 14.6949 7.6734 14.7814 8.82854 14.7814C9.57939 14.7814 11.5434 14.7237 12.6985 14.2051V15.3866C12.6119 15.6748 11.2257 16.1356 8.82854 16.1356ZM13.2473 8.58642H13.1895H13.1317C13.0163 8.58642 12.9006 8.61516 12.814 8.70159C12.7274 8.78801 12.6696 8.90338 12.6696 9.01855V13.1965C12.5829 13.4558 11.1967 13.9168 8.79954 13.9168C6.40242 13.9168 5.04496 13.4558 4.92954 13.1965V9.01855C4.92954 8.90338 4.87172 8.78801 4.78509 8.70159C4.69846 8.61516 4.58282 8.58642 4.4962 8.58642H4.46739H4.40957H4.38076C2.87889 8.58642 1.69493 7.37624 1.69493 5.90684C1.69493 4.43739 2.90793 3.22726 4.38076 3.22726C4.78509 3.22726 5.1606 3.31368 5.5359 3.48654C5.65134 3.54422 5.79578 3.54422 5.91141 3.48654C6.02685 3.42885 6.11368 3.31368 6.14249 3.16957C6.34475 1.84404 7.47112 0.893387 8.79954 0.893387C10.1282 0.893387 11.2545 1.84424 11.4566 3.16957C11.4854 3.31368 11.572 3.42885 11.6877 3.48654C11.8031 3.54422 11.9476 3.54422 12.0632 3.48654C12.4387 3.31368 12.814 3.22726 13.2183 3.22726C14.7202 3.22726 15.9042 4.43744 15.9042 5.90684C15.9044 7.37629 14.7492 8.58642 13.2473 8.58642ZM7.18232 8.93212V12.1592C7.18232 12.3898 6.98005 12.5913 6.74919 12.5913C6.51811 12.5913 6.31605 12.3895 6.31605 12.1592V8.93212C6.31605 8.70159 6.51832 8.5 6.74919 8.5C6.98026 8.5 7.18232 8.70179 7.18232 8.93212ZM9.26175 8.93212V12.1592C9.26175 12.3898 9.05949 12.5913 8.82862 12.5913C8.59755 12.5913 8.39549 12.3895 8.39549 12.1592V8.93212C8.39549 8.70159 8.59775 8.5 8.82862 8.5C9.05969 8.5 9.26175 8.70179 9.26175 8.93212ZM11.3412 8.93212V12.1592C11.3412 12.3898 11.1389 12.5913 10.9081 12.5913C10.677 12.5913 10.4749 12.3895 10.4749 12.1592V8.93212C10.4749 8.70159 10.6772 8.5 10.9081 8.5C11.1391 8.5 11.3412 8.70179 11.3412 8.93212Z" fill="#363534"/>
</svg>
