<svg width="83" height="80" viewBox="0 0 83 80" fill="none" xmlns="http://www.w3.org/2000/svg">
<path d="M52.2365 24.7483C51.3702 24.7483 50.5035 24.8941 49.7092 25.1125C48.5538 21.3988 45.1603 18.7773 41.1895 18.7773C37.2182 18.7773 33.8247 21.3988 32.6699 25.1125C31.8756 24.8941 31.0093 24.7483 30.1425 24.7483C25.233 24.7483 21.2617 28.7535 21.2617 33.7049C21.2617 38.3653 24.8718 42.2973 29.4207 42.6615L29.4202 57.7351C29.4202 61.4488 38.4456 61.7403 41.2615 61.7403C44.0774 61.7403 53.1027 61.4493 53.1027 57.7351V42.6615C57.6516 42.2973 61.2617 38.3653 61.2617 33.7049C61.1897 28.7529 57.1465 24.7483 52.2365 24.7483ZM41.1895 59.5559C35.1967 59.5559 31.7311 58.3906 31.5145 57.7354V54.7497C32.0922 55.0407 32.7419 55.2596 33.5362 55.4049C35.5578 55.9149 38.3017 56.1333 41.1895 56.1333C43.0666 56.1333 47.9767 55.9875 50.8645 54.6771V57.6628C50.648 58.3912 47.1823 59.5559 41.1895 59.5559ZM52.2365 40.4772H52.092H51.9474C51.6588 40.4772 51.3697 40.5499 51.1532 40.7683C50.9366 40.9867 50.792 41.2783 50.792 41.5693V52.128C50.5755 52.7832 47.1098 53.9485 41.117 53.9485C35.1242 53.9485 31.7306 52.7832 31.442 52.128V41.5693C31.442 41.2783 31.2975 40.9867 31.0809 40.7683C30.8643 40.5499 30.5752 40.4772 30.3587 40.4772H30.2866H30.1421H30.0701C26.3154 40.4772 23.3555 37.4188 23.3555 33.7053C23.3555 29.9917 26.388 26.9334 30.0701 26.9334C31.0809 26.9334 32.0197 27.1518 32.9579 27.5886C33.2465 27.7344 33.6076 27.7344 33.8967 27.5886C34.1853 27.4429 34.4024 27.1518 34.4744 26.7876C34.9801 23.4377 37.796 21.0351 41.117 21.0351C44.4386 21.0351 47.2545 23.4382 47.7597 26.7876C47.8317 27.1518 48.0483 27.4429 48.3374 27.5886C48.6259 27.7344 48.9871 27.7344 49.2761 27.5886C50.2149 27.1518 51.1533 26.9334 52.164 26.9334C55.9187 26.9334 58.8786 29.9918 58.8786 33.7053C58.8791 37.419 55.9912 40.4772 52.2365 40.4772Z" fill="#A0B492"/>
<path d="M62.6463 21.7412L68.5722 17.2967M40.8571 11.5305L40.8212 5.41699M19.5495 21.5511L13.7578 16.9331" stroke="#A0B492" stroke-width="1.5" stroke-linecap="round" stroke-linejoin="round"/>
<path d="M32.4126 74.4667V67.5807H35.103V65.957H27.9326V67.5807H30.6111V74.4667H32.4126Z" fill="#A0B492"/>
<path d="M38.057 74.5852C39.894 74.5852 41.2688 73.1393 41.2688 71.3022C41.2688 69.4533 39.894 68.0193 38.057 68.0193C36.2199 68.0193 34.8451 69.4533 34.8451 71.3022C34.8451 73.1393 36.2199 74.5852 38.057 74.5852ZM38.057 73.1274C37.2392 73.1274 36.5399 72.4755 36.5399 71.3022C36.5399 70.1289 37.2392 69.4889 38.057 69.4889C38.8747 69.4889 39.574 70.1289 39.574 71.3022C39.574 72.4755 38.8747 73.1274 38.057 73.1274Z" fill="#A0B492"/>
<path d="M43.9675 74.4667V71.5274L46.3853 74.4667H48.4831L45.5557 71.1718L48.1749 68.1378H46.2786L43.9675 70.8163V65.957H42.3201V74.4667H43.9675Z" fill="#A0B492"/>
<path d="M51.5975 74.5733C53.1383 74.5733 54.2405 73.7555 54.596 72.3215H52.9605C52.7709 72.9496 52.2849 73.3052 51.562 73.3052C50.7205 73.3052 50.2227 72.7363 50.116 71.7052H54.6079C54.9042 69.643 53.5768 68.0193 51.5738 68.0193C49.7486 68.0193 48.4331 69.3941 48.4331 71.2785C48.4331 73.2578 49.7012 74.5733 51.5975 74.5733ZM51.5383 69.2281C52.3205 69.2281 52.8183 69.7852 52.8657 70.6622H50.1397C50.282 69.7259 50.7679 69.2281 51.5383 69.2281Z" fill="#A0B492"/>
</svg>
