<svg width="74" height="24" viewBox="0 0 74 24" fill="none" xmlns="http://www.w3.org/2000/svg">
<path d="M12.3411 23.4546V4.47532H19.7522V0H0V4.47532H7.37852V23.4546H12.3411Z" fill="#A0B492"/>
<path d="M27.8896 23.7812C32.9501 23.7812 36.7373 19.7959 36.7373 14.7326C36.7373 9.63663 32.9501 5.68398 27.8896 5.68398C22.8291 5.68398 19.0419 9.63663 19.0419 14.7326C19.0419 19.7959 22.8291 23.7812 27.8896 23.7812ZM27.8896 19.7633C25.6368 19.7633 23.7106 17.9666 23.7106 14.7326C23.7106 11.4986 25.6368 9.73463 27.8896 9.73463C30.1423 9.73463 32.0686 11.4986 32.0686 14.7326C32.0686 17.9666 30.1423 19.7633 27.8896 19.7633Z" fill="#A0B492"/>
<path d="M44.1714 23.4546V15.3533L50.8316 23.4546H56.6104L48.5463 14.3733L55.7615 6.01065H50.5378L44.1714 13.3933V0H39.6333V23.4546H44.1714Z" fill="#A0B492"/>
<path d="M65.1898 23.7486C69.434 23.7486 72.4703 21.4946 73.4498 17.5419H68.9443C68.4219 19.2733 67.0834 20.2533 65.0918 20.2533C62.7738 20.2533 61.4025 18.6853 61.1087 15.8433H73.4824C74.2986 10.1593 70.642 5.68398 65.1245 5.68398C60.0966 5.68398 56.4727 9.4733 56.4727 14.6673C56.4727 20.1226 59.966 23.7486 65.1898 23.7486ZM65.0265 9.01597C67.1813 9.01597 68.5525 10.5513 68.6831 12.9686H61.174C61.5658 10.388 62.9044 9.01597 65.0265 9.01597Z" fill="#A0B492"/>
</svg>
