<svg width="17" height="17" viewBox="0 0 17 17" fill="none" xmlns="http://www.w3.org/2000/svg">
<path d="M8.85742 5C8.85742 4.7594 8.85742 4.63909 8.94203 4.56445C9.02664 4.48981 9.13647 4.50361 9.35613 4.53121C9.88354 4.59748 10.3942 4.76845 10.8574 5.0359C11.4655 5.38697 11.9705 5.89192 12.3215 6.5C12.6726 7.10808 12.8574 7.79785 12.8574 8.5C12.8574 9.20215 12.6726 9.89192 12.3215 10.5C11.9704 11.1081 11.4655 11.613 10.8574 11.9641C10.2493 12.3152 9.55957 12.5 8.85742 12.5C8.15527 12.5 7.4655 12.3152 6.85742 11.9641C6.39419 11.6967 5.9908 11.3399 5.6697 10.9163C5.53597 10.7399 5.4691 10.6516 5.49144 10.541C5.51378 10.4305 5.61796 10.3703 5.82633 10.25L8.60742 8.64434C8.72943 8.5739 8.79043 8.53868 8.82393 8.48066C8.85742 8.42265 8.85742 8.35221 8.85742 8.21132L8.85742 5Z" fill="#363534"/>
<circle cx="8.85775" cy="8.50033" r="6.33333" stroke="#363534" stroke-width="2"/>
</svg>
